<svg version="1.1" id="Layer_1" xmlns="http://www.w3.org/2000/svg" xmlns:xlink="http://www.w3.org/1999/xlink" x="0px" y="0px"
	 width="100%" viewBox="0 0 1024 1024" enable-background="new 0 0 1024 1024" xml:space="preserve">
<path fill="#000000" opacity="1.000000" stroke="none" 
	d="
M514.999817,169.747253 
	C562.149353,169.292465 606.667908,179.445328 649.363892,197.617813 
	C682.517883,211.728989 712.486084,231.054520 739.845825,254.633499 
	C764.917053,276.240234 786.036865,301.091431 804.025146,328.724060 
	C832.469666,372.419098 849.777893,420.275818 856.704407,471.861115 
	C859.831299,495.148956 861.016663,518.592224 859.021545,542.065796 
	C855.223206,586.754944 844.445679,629.628845 824.494629,669.936340 
	C803.570984,712.208801 775.489563,748.973755 739.786743,779.998474 
	C711.096436,804.929443 679.213379,824.442993 644.248657,839.115112 
	C621.750000,848.556091 598.454895,855.517395 574.487854,859.731201 
	C560.951294,862.111145 547.263123,863.976807 533.392761,864.524658 
	C524.082703,864.892395 514.772400,865.282471 505.470459,865.167053 
	C468.749573,864.711670 433.047913,858.354858 398.313477,846.381775 
	C356.882996,832.100403 319.403198,810.796814 286.196777,782.327759 
	C257.335663,757.584167 232.801102,729.027588 213.310059,696.180664 
	C197.487778,669.516357 185.076538,641.432312 176.781906,611.617432 
	C171.207794,591.581360 167.143524,571.227539 165.480759,550.371704 
	C164.381592,536.584961 163.474701,522.831970 163.851105,509.027252 
	C164.281754,493.233124 165.722595,477.512238 168.153580,461.884094 
	C172.681976,432.772552 181.111801,404.804962 192.835800,377.825287 
	C202.555695,355.457520 214.669098,334.446320 228.944244,314.647888 
	C240.853943,298.130066 254.049393,282.789398 268.542053,268.474396 
	C297.782104,239.592865 331.343719,217.124039 368.612244,200.041718 
	C401.269653,185.072937 435.629425,176.077591 471.158173,171.525330 
	C485.513092,169.686050 500.010284,169.319794 514.999817,169.747253 
M318.828613,776.651245 
	C341.782074,793.751648 366.540619,807.553040 393.197632,818.058899 
	C427.420654,831.546631 462.843994,839.077454 499.599396,839.946167 
	C511.897156,840.236877 524.208496,839.915833 536.536621,839.296082 
	C552.915894,838.472656 568.961365,835.773010 584.804321,832.190613 
	C604.945984,827.636047 624.469910,820.993835 643.400391,812.465820 
	C678.407104,796.695374 709.718567,775.591797 737.096008,748.786133 
	C760.186890,726.177429 779.740173,700.814819 795.157288,672.263245 
	C807.722168,648.993958 817.665833,624.758423 824.364136,599.195618 
	C831.569946,571.695557 834.873779,543.715820 834.706726,515.285095 
	C834.602844,497.615234 832.782166,480.151611 830.179565,462.684875 
	C827.739197,446.307068 823.431946,430.423950 818.337280,414.798950 
	C812.921143,398.188110 805.919067,382.148926 797.722473,366.649902 
	C784.886719,342.378845 769.416809,319.940063 750.787537,299.813019 
	C731.953552,279.464783 711.144470,261.354523 687.721313,246.315689 
	C655.755676,225.792191 621.416199,210.978760 584.399048,202.390015 
	C567.337585,198.431412 550.003235,196.605957 532.585632,195.026581 
	C509.039703,192.891510 485.720612,194.720764 462.482117,198.032288 
	C441.848541,200.972626 421.788116,206.319000 402.088623,213.253937 
	C360.275024,227.973770 323.601868,251.133881 291.121918,280.914001 
	C272.561615,297.931519 256.495514,317.260651 242.438004,338.277710 
	C222.420288,368.205688 207.876160,400.556854 198.851578,435.314941 
	C190.702133,466.702423 187.095490,498.587921 188.836029,531.150696 
	C189.647141,546.325317 190.945129,561.401001 193.681900,576.257080 
	C202.629196,624.825928 221.930664,669.105652 251.203735,708.839355 
	C270.162933,734.573486 292.479675,757.166382 318.828613,776.651245 
z"/>
<path fill="#000000" opacity="1.000000" stroke="none" 
	d="
M671.235718,567.217285 
	C640.776550,597.781494 605.133179,618.650635 563.423340,628.600342 
	C529.835449,636.612549 496.027985,636.360657 462.449341,628.711121 
	C440.422394,623.693237 419.721588,614.929138 400.262024,603.354248 
	C372.478271,586.828064 349.523743,565.017151 331.437073,538.397095 
	C311.786285,509.474945 299.352173,477.596466 295.597321,442.590454 
	C294.978241,436.819061 293.704773,431.125214 293.794128,425.269684 
	C293.916473,417.251831 294.103638,416.988525 302.377930,416.975037 
	C316.042145,416.952789 329.706390,416.975891 343.370636,416.975708 
	C359.034546,416.975494 374.698456,416.952759 390.362335,416.976257 
	C397.148804,416.986450 397.730652,417.494751 398.251892,424.241364 
	C400.550049,453.985718 412.819458,479.034241 434.425323,499.349945 
	C449.377411,513.409180 467.010803,522.625427 487.246613,527.120178 
	C521.046814,534.627991 552.081726,528.472534 580.176208,508.657379 
	C605.247559,490.974457 620.428833,466.596924 626.199768,436.406830 
	C626.949768,432.483032 627.609497,428.583832 627.844482,424.571106 
	C628.265686,417.378662 628.780212,417.005493 635.890137,416.992889 
	C659.719238,416.950562 683.548279,416.948364 707.377380,416.932831 
	C713.209656,416.929047 719.042175,416.904877 724.874207,416.940826 
	C731.432373,416.981262 732.178772,417.642609 732.111755,424.044220 
	C731.971802,437.407227 729.681763,450.504486 726.901428,463.521149 
	C720.471619,493.623535 707.600098,520.852356 689.506226,545.601013 
	C684.021179,553.103394 677.522095,559.864319 671.235718,567.217285 
z"/>
<path fill="#000000" opacity="1.000000" stroke="none" 
	d="
M617.015381,732.000000 
	C617.040955,747.824524 616.960449,763.150513 617.161560,778.472717 
	C617.216675,782.667480 615.994934,784.684143 611.535400,784.513916 
	C607.888123,784.374695 604.220886,784.890564 600.562439,784.892029 
	C540.430115,784.915894 480.297760,784.912964 420.165436,784.893188 
	C408.018829,784.889160 407.987030,784.845886 407.981293,772.964966 
	C407.958099,724.825928 407.951416,676.686829 407.951630,628.547791 
	C407.951660,621.338379 408.845978,620.784424 415.275757,623.951782 
	C440.325104,636.291443 466.675964,643.727783 494.580963,646.015625 
	C535.030212,649.332031 573.424438,642.287659 609.863586,624.465637 
	C616.411438,621.263062 617.049194,621.657532 617.048401,629.058105 
	C617.044861,663.205383 617.027588,697.352722 617.015381,732.000000 
z"/>
<path fill="#000000" opacity="1.000000" stroke="none" 
	d="
M445.745789,269.825562 
	C461.358765,242.360641 491.435822,227.488754 522.446777,231.203293 
	C554.947266,235.096237 582.168213,259.143799 588.220764,291.946411 
	C592.932373,317.481445 587.141296,341.017883 568.308411,360.536896 
	C551.156250,378.313843 530.283508,386.360077 506.174225,384.117432 
	C475.782898,381.290527 454.148438,364.900085 442.061737,336.925659 
	C432.298920,314.329834 433.860870,291.851013 445.745789,269.825562 
z"/>
<path fill="#000000" opacity="1.000000" stroke="none" 
	d="
M584.576111,489.582275 
	C569.118164,504.731354 550.873352,514.290771 530.055664,517.680603 
	C499.562408,522.645996 471.815063,515.057434 447.891022,495.386536 
	C425.520630,476.993103 414.258087,452.534882 411.117706,424.078888 
	C410.479431,418.295105 411.789124,416.943024 417.665741,416.944366 
	C480.995636,416.958710 544.325500,416.993286 607.655396,417.046722 
	C613.977722,417.052063 614.543945,417.576843 614.361389,423.932556 
	C613.838867,442.126312 607.321960,458.348480 597.719238,473.503479 
	C594.055054,479.286377 589.899292,484.691772 584.576111,489.582275 
z"/>
</svg>